<svg xmlns="http://www.w3.org/2000/svg" fill="none" viewBox="0 0 14 14"><g id="block-2--remove-circle-garbage-trash-delete-cross-x"><path id="Union" fill="#ffffff" fill-rule="evenodd" d="M2 7c0 -1.225 0.242 -2.19 0.658 -2.927L5.586 7 2.658 9.927C2.242 9.19 2 8.225 2 7Zm2.073 4.342C4.81 11.758 5.775 12 7 12s2.19 -0.242 2.927 -0.658L7 8.414l-2.927 2.928ZM8.414 7l2.928 2.927C11.758 9.19 12 8.225 12 7s-0.242 -2.19 -0.658 -2.927L8.414 7Zm1.513 -4.342C9.19 2.242 8.225 2 7 2s-2.19 0.242 -2.927 0.658L7 5.586l2.927 -2.928ZM14 7c0 2.098 -0.592 3.88 -1.843 5.137l-0.01 0.01 -0.01 0.01C10.879 13.408 9.098 14 7 14c-2.104 0 -3.89 -0.595 -5.147 -1.853C0.595 10.89 0 9.104 0 7s0.595 -3.89 1.853 -5.147C3.11 0.595 4.896 0 7 0s3.89 0.595 5.147 1.853C13.405 3.11 14 4.896 14 7Z" clip-rule="evenodd" stroke-width="1"></path></g></svg>