<svg xmlns="http://www.w3.org/2000/svg" fill="none" viewBox="0 0 14 14"><g id="check-square--check-form-validation-checkmark-success-add-addition-box-square-tick"><path id="Subtract" fill="#ffffff" fill-rule="evenodd" d="M3.657 0.475C4.731 0.355 5.852 0.25 7 0.25c1.148 0 2.269 0.105 3.343 0.225a3.632 3.632 0 0 1 3.194 3.203c0.115 1.069 0.213 2.182 0.213 3.322 0 1.14 -0.098 2.253 -0.213 3.322a3.632 3.632 0 0 1 -3.194 3.203c-1.074 0.12 -2.195 0.225 -3.343 0.225 -1.148 0 -2.269 -0.105 -3.343 -0.225a3.632 3.632 0 0 1 -3.194 -3.203C0.348 9.253 0.25 8.14 0.25 7c0 -1.14 0.098 -2.253 0.213 -3.322A3.632 3.632 0 0 1 3.657 0.475ZM9.92 4.963a0.625 0.625 0 0 0 -0.84 -0.926c-0.83 0.754 -1.455 1.431 -1.98 2.253 -0.384 0.599 -0.707 1.26 -1.023 2.062L4.949 7.19a0.625 0.625 0 0 0 -0.898 0.87L5.87 9.935a0.625 0.625 0 0 0 1.04 -0.23c0.42 -1.207 0.793 -2.04 1.242 -2.74 0.447 -0.698 0.986 -1.292 1.769 -2.002Z" clip-rule="evenodd" stroke-width="1"></path></g></svg>