<svg xmlns="http://www.w3.org/2000/svg" fill="none" viewBox="0 0 14 14"><g id="information-circle--information-frame-info-more-help-point-circle"><path id="Subtract" fill="#ffffff" fill-rule="evenodd" d="M7 0.185c1.682 0 3.402 0.488 4.628 1.512 1.382 1.154 2.08 3.011 2.176 4.856 0.097 1.845 -0.402 3.776 -1.538 5.11C11.022 13.124 8.98 13.815 7 13.815s-4.022 -0.69 -5.266 -2.152C0.598 10.329 0.099 8.398 0.196 6.553 0.293 4.708 0.99 2.85 2.372 1.697 3.598 0.673 5.318 0.185 7 0.185Zm0.257 2.906c0.345 0 0.625 0.28 0.625 0.625v0.323a0.625 0.625 0 1 1 -1.25 0v-0.323c0 -0.345 0.28 -0.625 0.625 -0.625Zm-1.51 2.284a0.625 0.625 0 0 0 0 1.25h0.496c0.207 0 0.375 0.168 0.375 0.375v2.106H5.76a0.625 0.625 0 1 0 0 1.25h2.978a0.625 0.625 0 0 0 0 -1.25h-0.871V7c0 -0.897 -0.728 -1.625 -1.625 -1.625h-0.497Z" clip-rule="evenodd" stroke-width="1"></path></g></svg>