<svg width="512" height="512" viewBox="0 0 512 512" style="color:currentColor" xmlns="http://www.w3.org/2000/svg" class="h-full w-full"><rect width="512" height="512" x="0" y="0" rx="30" fill="transparent" stroke="transparent" stroke-width="0" stroke-opacity="100%" paint-order="stroke"></rect><svg width="256px" height="256px" viewBox="0 0 24 24" fill="currentColor" x="128" y="128" role="img" style="display:inline-block;vertical-align:middle" xmlns="http://www.w3.org/2000/svg"><g fill="currentColor"><g fill="none"><path fill-rule="evenodd" clip-rule="evenodd" d="M13 3a1 1 0 1 0-2 0v1a1 1 0 1 0 2 0V3zM6.207 4.793a1 1 0 0 0-1.414 1.414l1 1a1 1 0 0 0 1.414-1.414l-1-1zm13 1.414a1 1 0 0 0-1.414-1.414l-1 1a1 1 0 0 0 1.414 1.414l1-1zM12 6a6 6 0 0 0-3.317 11h6.634A6 6 0 0 0 12 6zm3 12H9v1a3 3 0 1 0 6 0v-1zM3 11a1 1 0 1 0 0 2h1a1 1 0 1 0 0-2H3zm17 0a1 1 0 1 0 0 2h1a1 1 0 1 0 0-2h-1z" fill="currentColor"/></g></g></svg></svg>