<svg width="512" height="512" viewBox="0 0 512 512" style="color:currentColor" xmlns="http://www.w3.org/2000/svg" class="h-full w-full"><rect width="512" height="512" x="0" y="0" rx="30" fill="transparent" stroke="transparent" stroke-width="0" stroke-opacity="100%" paint-order="stroke"></rect><svg width="256px" height="256px" viewBox="0 0 24 24" fill="currentColor" x="128" y="128" role="img" style="display:inline-block;vertical-align:middle" xmlns="http://www.w3.org/2000/svg"><g fill="currentColor"><g fill="none"><path fill="currentColor" fill-rule="evenodd" d="M3 12a3 3 0 0 1 3-3h12a3 3 0 0 1 3 3v7a3 3 0 0 1-3 3H6a3 3 0 0 1-3-3v-7zm10 2a1 1 0 1 0-2 0v3a1 1 0 1 0 2 0v-3z" clip-rule="evenodd"/><path stroke="currentColor" stroke-linecap="round" stroke-linejoin="round" stroke-width="2" d="M8 10V7a4 4 0 0 1 4-4v0a4 4 0 0 1 4 4v3"/></g></g></svg></svg>