<svg width="512" height="512" viewBox="0 0 512 512" style="color:currentColor" xmlns="http://www.w3.org/2000/svg" class="h-full w-full"><rect width="512" height="512" x="0" y="0" rx="30" fill="transparent" stroke="transparent" stroke-width="0" stroke-opacity="100%" paint-order="stroke"></rect><svg width="256px" height="256px" viewBox="0 0 24 24" fill="currentColor" x="128" y="128" role="img" style="display:inline-block;vertical-align:middle" xmlns="http://www.w3.org/2000/svg"><g fill="currentColor"><g fill="none"><path fill-rule="evenodd" clip-rule="evenodd" d="M15.586 3a2 2 0 0 1 2.828 0L21 5.586a2 2 0 0 1 0 2.828L19.414 10L14 4.586L15.586 3zm-3 3l-9 9A2 2 0 0 0 3 16.414V19a2 2 0 0 0 2 2h2.586A2 2 0 0 0 9 20.414l9-9L12.586 6z" fill="currentColor"/></g></g></svg></svg>