<svg width="512" height="512" viewBox="0 0 512 512" style="color:currentColor" xmlns="http://www.w3.org/2000/svg" class="h-full w-full"><rect width="512" height="512" x="0" y="0" rx="30" fill="transparent" stroke="transparent" stroke-width="0" stroke-opacity="100%" paint-order="stroke"></rect><svg width="256px" height="256px" viewBox="0 0 24 24" fill="currentColor" x="128" y="128" role="img" style="display:inline-block;vertical-align:middle" xmlns="http://www.w3.org/2000/svg"><g fill="currentColor"><g fill="currentColor"><path d="M6 3a1 1 0 0 0-2 0v1H3a1 1 0 0 0 0 2h1v1a1 1 0 0 0 2 0V6h1a1 1 0 0 0 0-2H6V3zm8 0a1 1 0 1 0-2 0c0 1.444-.199 3.476-1.162 5.119C9.924 9.676 8.26 11 5 11a1 1 0 1 0 0 2c1.328 0 3.082.403 4.486 1.57C10.852 15.703 12 17.655 12 21a1 1 0 1 0 2 0c0-1.444.199-3.476 1.162-5.119C16.076 14.324 17.74 13 21 13a1 1 0 1 0 0-2c-1.328 0-3.082-.403-4.486-1.57C15.148 8.297 14 6.345 14 3zm-1.438 6.131c.187-.318.35-.645.493-.975a8.295 8.295 0 0 0 2.181 2.813c.444.369.911.678 1.388.934c-1.445.7-2.476 1.754-3.186 2.966a8.82 8.82 0 0 0-.493.975a8.296 8.296 0 0 0-2.181-2.813a8.388 8.388 0 0 0-1.388-.934c1.445-.7 2.476-1.754 3.187-2.966z"/></g></g></svg></svg>