<svg width="512" height="512" viewBox="0 0 512 512" style="color:currentColor" xmlns="http://www.w3.org/2000/svg" class="h-full w-full"><rect width="512" height="512" x="0" y="0" rx="30" fill="transparent" stroke="transparent" stroke-width="0" stroke-opacity="100%" paint-order="stroke"></rect><svg width="256px" height="256px" viewBox="0 0 24 24" fill="currentColor" x="128" y="128" role="img" style="display:inline-block;vertical-align:middle" xmlns="http://www.w3.org/2000/svg"><g fill="currentColor"><g fill="currentColor"><path d="M4 7a1 1 0 0 1 1-1h14a1 1 0 1 1 0 2v10a3 3 0 0 1-3 3H8a3 3 0 0 1-3-3V8a1 1 0 0 1-1-1zm3 1v10a1 1 0 0 0 1 1h8a1 1 0 0 0 1-1V8H7z"/><path d="M11 5a1 1 0 0 0-1 1v1a1 1 0 0 1-2 0V6a3 3 0 0 1 3-3h2a3 3 0 0 1 3 3v1a1 1 0 1 1-2 0V6a1 1 0 0 0-1-1h-2zm-1 5a1 1 0 0 1 1 1v5a1 1 0 1 1-2 0v-5a1 1 0 0 1 1-1zm4 0a1 1 0 0 1 1 1v5a1 1 0 1 1-2 0v-5a1 1 0 0 1 1-1z"/></g></g></svg></svg>